<mxfile host="app.diagrams.net" modified="2020-07-26T17:16:00.957Z" agent="5.0 (Windows NT 10.0; Win64; x64) AppleWebKit/537.36 (KHTML, like Gecko) Chrome/84.0.4147.89 Safari/537.36" etag="sgj8kINjJQ1EsCsASz1_" version="13.5.3" type="github">
  <diagram id="GKxKKLx36H1TCc3Gob5_" name="Page-1">
    <mxGraphModel dx="1638" dy="963" grid="1" gridSize="10" guides="1" tooltips="1" connect="1" arrows="1" fold="1" page="1" pageScale="1" pageWidth="850" pageHeight="1100" math="0" shadow="0">
      <root>
        <mxCell id="0" />
        <mxCell id="1" parent="0" />
        <mxCell id="8lnzL6gN5U5N6_sDTSzh-2" value="Lightsail WordPress Cluster" style="fillColor=none;strokeColor=#5A6C86;dashed=1;verticalAlign=top;fontStyle=1;fontColor=#5A6C86;align=left;fontFamily=Verdana;" parent="1" vertex="1">
          <mxGeometry x="80" y="410" width="510" height="400" as="geometry" />
        </mxCell>
        <mxCell id="8lnzL6gN5U5N6_sDTSzh-32" style="edgeStyle=orthogonalEdgeStyle;rounded=0;orthogonalLoop=1;jettySize=auto;html=1;startArrow=none;startFill=0;" parent="1" source="8lnzL6gN5U5N6_sDTSzh-3" edge="1">
          <mxGeometry relative="1" as="geometry">
            <mxPoint x="270" y="700" as="targetPoint" />
            <Array as="points">
              <mxPoint x="180" y="700" />
            </Array>
          </mxGeometry>
        </mxCell>
        <mxCell id="8lnzL6gN5U5N6_sDTSzh-33" value="wp-admin" style="edgeLabel;html=1;align=center;verticalAlign=middle;resizable=0;points=[];fontSize=9;" parent="8lnzL6gN5U5N6_sDTSzh-32" vertex="1" connectable="0">
          <mxGeometry x="-0.2681" y="31" relative="1" as="geometry">
            <mxPoint as="offset" />
          </mxGeometry>
        </mxCell>
        <mxCell id="8lnzL6gN5U5N6_sDTSzh-41" style="edgeStyle=orthogonalEdgeStyle;rounded=0;orthogonalLoop=1;jettySize=auto;html=1;startArrow=none;startFill=0;exitX=1;exitY=0.5;exitDx=0;exitDy=0;exitPerimeter=0;" parent="1" source="8lnzL6gN5U5N6_sDTSzh-3" edge="1">
          <mxGeometry relative="1" as="geometry">
            <mxPoint x="300" y="600" as="targetPoint" />
            <Array as="points">
              <mxPoint x="240" y="601" />
              <mxPoint x="240" y="600" />
            </Array>
          </mxGeometry>
        </mxCell>
        <mxCell id="8lnzL6gN5U5N6_sDTSzh-42" value="public&lt;br style=&quot;font-size: 9px;&quot;&gt;traffic" style="edgeLabel;html=1;align=center;verticalAlign=middle;resizable=0;points=[];fontSize=9;" parent="8lnzL6gN5U5N6_sDTSzh-41" vertex="1" connectable="0">
          <mxGeometry x="0.1876" y="1" relative="1" as="geometry">
            <mxPoint x="-3" as="offset" />
          </mxGeometry>
        </mxCell>
        <mxCell id="8lnzL6gN5U5N6_sDTSzh-3" value="" style="fontColor=#0066CC;verticalAlign=top;verticalLabelPosition=bottom;labelPosition=center;align=center;html=1;outlineConnect=0;fillColor=#CCCCCC;strokeColor=#6881B3;gradientColor=none;gradientDirection=north;strokeWidth=2;shape=mxgraph.networks.load_balancer;" parent="1" vertex="1">
          <mxGeometry x="130" y="585.5" width="100" height="30" as="geometry" />
        </mxCell>
        <mxCell id="8lnzL6gN5U5N6_sDTSzh-4" value="" style="fontColor=#0066CC;verticalAlign=top;verticalLabelPosition=bottom;labelPosition=center;align=center;html=1;outlineConnect=0;fillColor=#CCCCCC;strokeColor=#6881B3;gradientColor=none;gradientDirection=north;strokeWidth=2;shape=mxgraph.networks.nas_filer;" parent="1" vertex="1">
          <mxGeometry x="345" y="470" width="100" height="35" as="geometry" />
        </mxCell>
        <mxCell id="8lnzL6gN5U5N6_sDTSzh-5" value="" style="fontColor=#0066CC;verticalAlign=top;verticalLabelPosition=bottom;labelPosition=center;align=center;html=1;outlineConnect=0;fillColor=#CCCCCC;strokeColor=#6881B3;gradientColor=none;gradientDirection=north;strokeWidth=2;shape=mxgraph.networks.nas_filer;" parent="1" vertex="1">
          <mxGeometry x="345" y="580" width="100" height="35" as="geometry" />
        </mxCell>
        <mxCell id="8lnzL6gN5U5N6_sDTSzh-6" value="" style="fontColor=#0066CC;verticalAlign=top;verticalLabelPosition=bottom;labelPosition=center;align=center;html=1;outlineConnect=0;fillColor=#CCCCCC;strokeColor=#6881B3;gradientColor=none;gradientDirection=north;strokeWidth=2;shape=mxgraph.networks.nas_filer;" parent="1" vertex="1">
          <mxGeometry x="341.72" y="700" width="100" height="35" as="geometry" />
        </mxCell>
        <mxCell id="8lnzL6gN5U5N6_sDTSzh-8" value="" style="outlineConnect=0;fontColor=#232F3E;gradientColor=none;fillColor=#3334B9;strokeColor=none;dashed=0;verticalLabelPosition=bottom;verticalAlign=top;align=center;html=1;fontSize=12;fontStyle=0;aspect=fixed;pointerEvents=1;shape=mxgraph.aws4.rds_mysql_instance;" parent="1" vertex="1">
          <mxGeometry x="406.72" y="735" width="30" height="30" as="geometry" />
        </mxCell>
        <mxCell id="8lnzL6gN5U5N6_sDTSzh-9" value="" style="outlineConnect=0;fontColor=#232F3E;gradientColor=none;fillColor=#277116;strokeColor=none;dashed=0;verticalLabelPosition=bottom;verticalAlign=top;align=center;html=1;fontSize=12;fontStyle=0;aspect=fixed;pointerEvents=1;shape=mxgraph.aws4.file_system;" parent="1" vertex="1">
          <mxGeometry x="351.65000000000003" y="737.5" width="26.71" height="25" as="geometry" />
        </mxCell>
        <mxCell id="8lnzL6gN5U5N6_sDTSzh-10" value="" style="shape=image;html=1;verticalAlign=top;verticalLabelPosition=bottom;labelBackgroundColor=#ffffff;imageAspect=0;aspect=fixed;image=https://cdn3.iconfinder.com/data/icons/free-social-icons/67/wordpress_circle_black-128.png" parent="1" vertex="1">
          <mxGeometry x="380" y="677" width="30" height="30" as="geometry" />
        </mxCell>
        <mxCell id="8lnzL6gN5U5N6_sDTSzh-11" value="" style="outlineConnect=0;fontColor=#232F3E;gradientColor=none;fillColor=#3334B9;strokeColor=none;dashed=0;verticalLabelPosition=bottom;verticalAlign=top;align=center;html=1;fontSize=12;fontStyle=0;aspect=fixed;pointerEvents=1;shape=mxgraph.aws4.rds_mysql_instance;" parent="1" vertex="1">
          <mxGeometry x="405" y="615" width="30" height="30" as="geometry" />
        </mxCell>
        <mxCell id="8lnzL6gN5U5N6_sDTSzh-27" style="edgeStyle=orthogonalEdgeStyle;curved=1;rounded=0;orthogonalLoop=1;jettySize=auto;html=1;startArrow=classic;startFill=1;" parent="1" source="8lnzL6gN5U5N6_sDTSzh-12" target="8lnzL6gN5U5N6_sDTSzh-9" edge="1">
          <mxGeometry relative="1" as="geometry">
            <Array as="points">
              <mxPoint x="310" y="627.5" />
              <mxPoint x="310" y="750" />
            </Array>
          </mxGeometry>
        </mxCell>
        <mxCell id="8lnzL6gN5U5N6_sDTSzh-29" value="Unison&lt;br&gt;File&amp;nbsp;&lt;br&gt;Replication" style="edgeLabel;html=1;align=center;verticalAlign=middle;resizable=0;points=[];" parent="8lnzL6gN5U5N6_sDTSzh-27" vertex="1" connectable="0">
          <mxGeometry x="-0.1336" relative="1" as="geometry">
            <mxPoint as="offset" />
          </mxGeometry>
        </mxCell>
        <mxCell id="8lnzL6gN5U5N6_sDTSzh-12" value="" style="outlineConnect=0;fontColor=#232F3E;gradientColor=none;fillColor=#277116;strokeColor=none;dashed=0;verticalLabelPosition=bottom;verticalAlign=top;align=center;html=1;fontSize=12;fontStyle=0;aspect=fixed;pointerEvents=1;shape=mxgraph.aws4.file_system;" parent="1" vertex="1">
          <mxGeometry x="351.65" y="615" width="26.71" height="25" as="geometry" />
        </mxCell>
        <mxCell id="8lnzL6gN5U5N6_sDTSzh-25" style="edgeStyle=orthogonalEdgeStyle;curved=1;rounded=0;orthogonalLoop=1;jettySize=auto;html=1;startArrow=classic;startFill=1;" parent="1" source="8lnzL6gN5U5N6_sDTSzh-12" target="8lnzL6gN5U5N6_sDTSzh-15" edge="1">
          <mxGeometry relative="1" as="geometry">
            <Array as="points">
              <mxPoint x="310" y="630" />
              <mxPoint x="310" y="515" />
            </Array>
          </mxGeometry>
        </mxCell>
        <mxCell id="8lnzL6gN5U5N6_sDTSzh-28" value="Unison&lt;br&gt;File&amp;nbsp;&lt;br&gt;Replication" style="edgeLabel;html=1;align=center;verticalAlign=middle;resizable=0;points=[];" parent="8lnzL6gN5U5N6_sDTSzh-25" vertex="1" connectable="0">
          <mxGeometry x="0.1462" y="-5" relative="1" as="geometry">
            <mxPoint as="offset" />
          </mxGeometry>
        </mxCell>
        <mxCell id="8lnzL6gN5U5N6_sDTSzh-13" value="" style="shape=image;html=1;verticalAlign=top;verticalLabelPosition=bottom;labelBackgroundColor=#ffffff;imageAspect=0;aspect=fixed;image=https://cdn3.iconfinder.com/data/icons/free-social-icons/67/wordpress_circle_black-128.png" parent="1" vertex="1">
          <mxGeometry x="380" y="557.5" width="30" height="30" as="geometry" />
        </mxCell>
        <mxCell id="8lnzL6gN5U5N6_sDTSzh-14" value="" style="outlineConnect=0;fontColor=#232F3E;gradientColor=none;fillColor=#3334B9;strokeColor=none;dashed=0;verticalLabelPosition=bottom;verticalAlign=top;align=center;html=1;fontSize=12;fontStyle=0;aspect=fixed;pointerEvents=1;shape=mxgraph.aws4.rds_mysql_instance;" parent="1" vertex="1">
          <mxGeometry x="408.36" y="505" width="30" height="30" as="geometry" />
        </mxCell>
        <mxCell id="8lnzL6gN5U5N6_sDTSzh-15" value="" style="outlineConnect=0;fontColor=#232F3E;gradientColor=none;fillColor=#277116;strokeColor=none;dashed=0;verticalLabelPosition=bottom;verticalAlign=top;align=center;html=1;fontSize=12;fontStyle=0;aspect=fixed;pointerEvents=1;shape=mxgraph.aws4.file_system;" parent="1" vertex="1">
          <mxGeometry x="351.65000000000003" y="500" width="26.71" height="25" as="geometry" />
        </mxCell>
        <mxCell id="8lnzL6gN5U5N6_sDTSzh-16" value="" style="shape=image;html=1;verticalAlign=top;verticalLabelPosition=bottom;labelBackgroundColor=#ffffff;imageAspect=0;aspect=fixed;image=https://cdn3.iconfinder.com/data/icons/free-social-icons/67/wordpress_circle_black-128.png" parent="1" vertex="1">
          <mxGeometry x="380" y="450" width="30" height="30" as="geometry" />
        </mxCell>
        <mxCell id="8lnzL6gN5U5N6_sDTSzh-22" style="edgeStyle=orthogonalEdgeStyle;rounded=0;orthogonalLoop=1;jettySize=auto;html=1;startArrow=classic;startFill=1;curved=1;" parent="1" source="8lnzL6gN5U5N6_sDTSzh-11" target="8lnzL6gN5U5N6_sDTSzh-14" edge="1">
          <mxGeometry relative="1" as="geometry">
            <mxPoint x="535.6300000000001" y="550.2" as="sourcePoint" />
            <Array as="points">
              <mxPoint x="500" y="630" />
              <mxPoint x="500" y="515" />
            </Array>
          </mxGeometry>
        </mxCell>
        <mxCell id="8lnzL6gN5U5N6_sDTSzh-30" value="Percona&lt;br&gt;DB&lt;br&gt;Replication" style="edgeLabel;html=1;align=center;verticalAlign=middle;resizable=0;points=[];" parent="8lnzL6gN5U5N6_sDTSzh-22" vertex="1" connectable="0">
          <mxGeometry x="0.1339" y="-1" relative="1" as="geometry">
            <mxPoint as="offset" />
          </mxGeometry>
        </mxCell>
        <mxCell id="8lnzL6gN5U5N6_sDTSzh-23" style="edgeStyle=orthogonalEdgeStyle;rounded=0;orthogonalLoop=1;jettySize=auto;html=1;curved=1;startArrow=classic;startFill=1;" parent="1" source="8lnzL6gN5U5N6_sDTSzh-8" target="8lnzL6gN5U5N6_sDTSzh-11" edge="1">
          <mxGeometry relative="1" as="geometry">
            <mxPoint x="535.6300000000001" y="571.6875" as="sourcePoint" />
            <Array as="points">
              <mxPoint x="500" y="750" />
              <mxPoint x="500" y="630" />
            </Array>
          </mxGeometry>
        </mxCell>
        <mxCell id="8lnzL6gN5U5N6_sDTSzh-31" value="Percona&lt;br&gt;DB&lt;br&gt;Replication" style="edgeLabel;html=1;align=center;verticalAlign=middle;resizable=0;points=[];" parent="8lnzL6gN5U5N6_sDTSzh-23" vertex="1" connectable="0">
          <mxGeometry x="0.0736" relative="1" as="geometry">
            <mxPoint as="offset" />
          </mxGeometry>
        </mxCell>
        <mxCell id="8lnzL6gN5U5N6_sDTSzh-36" style="edgeStyle=orthogonalEdgeStyle;rounded=0;orthogonalLoop=1;jettySize=auto;html=1;startArrow=none;startFill=0;entryX=0.287;entryY=0.132;entryDx=0;entryDy=0;entryPerimeter=0;" parent="1" edge="1">
          <mxGeometry relative="1" as="geometry">
            <mxPoint x="181" y="587.5" as="sourcePoint" />
            <mxPoint x="270.12568" y="496" as="targetPoint" />
            <Array as="points">
              <mxPoint x="181" y="496" />
            </Array>
          </mxGeometry>
        </mxCell>
        <mxCell id="8lnzL6gN5U5N6_sDTSzh-37" value="public traffic" style="edgeLabel;html=1;align=center;verticalAlign=middle;resizable=0;points=[];fontSize=9;" parent="8lnzL6gN5U5N6_sDTSzh-36" vertex="1" connectable="0">
          <mxGeometry x="-0.2681" y="31" relative="1" as="geometry">
            <mxPoint x="59.98" y="-1.2" as="offset" />
          </mxGeometry>
        </mxCell>
      </root>
    </mxGraphModel>
  </diagram>
</mxfile>
